<svg width="358" height="358" viewBox="0 0 358 358" fill="none" xmlns="http://www.w3.org/2000/svg">
<path d="M2 274C3.10457 274 4 274.895 4 276V340C4 347.732 10.268 354 18 354H82C83.1046 354 84 354.895 84 356C84 357.105 83.1046 358 82 358H18C8.05888 358 0 349.941 0 340V276C0 274.895 0.89543 274 2 274ZM356 274C357.105 274 358 274.895 358 276V340C358 349.941 349.941 358 340 358H276C274.895 358 274 357.105 274 356C274 354.895 274.895 354 276 354H340C347.732 354 354 347.732 354 340V276C354 274.895 354.895 274 356 274ZM82 0C83.1046 0 84 0.89543 84 2C84 3.10457 83.1046 4 82 4H18C10.268 4 4 10.268 4 18V82C4 83.1046 3.10457 84 2 84C0.89543 84 0 83.1046 0 82V18C0 8.05887 8.05888 0 18 0H82ZM340 0C349.941 0 358 8.05888 358 18V82C358 83.1046 357.105 84 356 84C354.895 84 354 83.1046 354 82V18C354 10.268 347.732 4 340 4H276C274.895 4 274 3.10457 274 2C274 0.89543 274.895 0 276 0H340Z" fill="#1DCAD3"/>
</svg>
